<svg xmlns="http://www.w3.org/2000/svg" xmlns:xlink="http://www.w3.org/1999/xlink" width="500" zoomAndPan="magnify" viewBox="0 0 375 374.999991" height="500" preserveAspectRatio="xMidYMid meet" version="1.0"><defs><clipPath id="0185d79063"><path d="M 15.082031 6.871094 L 347.332031 6.871094 L 347.332031 340 L 15.082031 340 Z M 15.082031 6.871094 " clip-rule="nonzero"/></clipPath><clipPath id="71d7a19ab7"><path d="M 84 247 L 279 247 L 279 372.121094 L 84 372.121094 Z M 84 247 " clip-rule="nonzero"/></clipPath></defs><g clip-path="url(#0185d79063)"><path fill="#9ad4c8" d="M 347.34375 173.242188 C 347.34375 265.101562 272.988281 339.558594 181.257812 339.558594 C 89.527344 339.558594 15.171875 265.101562 15.171875 173.242188 C 15.167969 81.382812 89.527344 6.925781 181.257812 6.925781 C 272.988281 6.921875 347.34375 81.382812 347.34375 173.242188 " fill-opacity="1" fill-rule="nonzero"/></g><path fill="#3f2463" d="M 251.953125 150.546875 C 251.953125 150.546875 252.15625 209.851562 249.679688 218.851562 C 247.21875 227.855469 239.285156 237.449219 239.285156 237.449219 C 239.285156 237.449219 233.46875 241.230469 229.238281 237.449219 L 229.238281 223.617188 L 224.480469 237.449219 C 224.480469 237.449219 212.65625 244.28125 199.277344 239.132812 C 185.890625 233.976562 199.277344 189.433594 199.277344 189.433594 L 251.964844 148.429688 " fill-opacity="1" fill-rule="nonzero"/><path fill="#3f2463" d="M 110.636719 150.546875 C 110.636719 150.546875 110.433594 209.851562 112.910156 218.851562 C 115.375 227.855469 123.304688 237.449219 123.304688 237.449219 C 123.304688 237.449219 129.121094 241.230469 133.351562 237.449219 L 133.351562 223.617188 L 138.109375 237.449219 C 138.109375 237.449219 149.933594 244.28125 163.3125 239.132812 C 176.699219 233.976562 163.3125 189.433594 163.3125 189.433594 L 110.636719 148.429688 " fill-opacity="1" fill-rule="nonzero"/><g clip-path="url(#71d7a19ab7)"><path fill="#ffffff" d="M 278.148438 340.011719 C 269.945312 346.15625 261.125 351.535156 251.808594 356.035156 C 250.390625 356.726562 248.960938 357.382812 247.535156 358.027344 C 227.292969 367.113281 204.875 372.164062 181.257812 372.164062 C 157.644531 372.164062 135.222656 367.113281 114.992188 358.027344 C 113.542969 357.382812 112.117188 356.726562 110.710938 356.035156 C 101.394531 351.523438 92.574219 346.15625 84.367188 340.011719 C 85.804688 307.863281 102.863281 279.777344 128.128906 263.195312 C 143.386719 253.164062 161.640625 247.339844 181.257812 247.339844 C 184.25 247.339844 187.210938 247.476562 190.121094 247.742188 C 206.375 249.214844 221.457031 254.691406 234.390625 263.195312 C 246.023438 270.828125 255.910156 280.898438 263.335938 292.675781 C 272.046875 306.496094 277.367188 322.667969 278.148438 340.011719 " fill-opacity="1" fill-rule="nonzero"/></g><path fill="#e1ad9e" d="M 234.390625 263.195312 C 232.910156 274.410156 227.96875 284.542969 220.664062 292.464844 C 210.871094 303.085938 196.847656 309.746094 181.257812 309.746094 C 156.289062 309.746094 135.308594 292.644531 129.355469 269.496094 C 128.824219 267.441406 128.414062 265.332031 128.128906 263.195312 C 143.386719 253.164062 161.640625 247.339844 181.257812 247.339844 C 184.25 247.339844 187.210938 247.46875 190.132812 247.742188 C 190.640625 247.785156 191.144531 247.839844 191.644531 247.890625 C 191.960938 247.921875 192.277344 247.953125 192.585938 247.996094 C 192.933594 248.027344 193.28125 248.082031 193.621094 248.125 C 193.832031 248.144531 194.054688 248.175781 194.265625 248.207031 C 194.574219 248.242188 194.890625 248.292969 195.207031 248.335938 C 195.449219 248.367188 195.695312 248.410156 195.949219 248.441406 C 196.160156 248.472656 196.371094 248.503906 196.582031 248.546875 C 196.941406 248.601562 197.289062 248.664062 197.648438 248.71875 C 199.195312 248.980469 200.726562 249.277344 202.238281 249.617188 L 203.253906 249.839844 C 203.445312 249.890625 203.644531 249.933594 203.835938 249.988281 C 204.195312 250.074219 204.566406 250.15625 204.914062 250.253906 C 204.980469 250.261719 205.03125 250.273438 205.074219 250.285156 C 205.527344 250.402344 205.984375 250.515625 206.429688 250.644531 C 206.914062 250.761719 207.390625 250.898438 207.855469 251.035156 C 208.394531 251.183594 208.921875 251.34375 209.464844 251.503906 C 209.875 251.628906 210.289062 251.757812 210.699219 251.894531 C 210.964844 251.980469 211.238281 252.0625 211.492188 252.148438 C 211.925781 252.285156 212.359375 252.433594 212.785156 252.582031 C 213.3125 252.761719 213.832031 252.941406 214.347656 253.132812 C 214.390625 253.152344 214.421875 253.164062 214.453125 253.175781 C 214.992188 253.367188 215.523438 253.566406 216.050781 253.769531 C 216.441406 253.925781 216.84375 254.074219 217.246094 254.246094 C 218.292969 254.65625 219.320312 255.09375 220.335938 255.535156 L 221.667969 256.140625 C 222.070312 256.320312 222.46875 256.511719 222.871094 256.703125 C 223.242188 256.882812 223.601562 257.050781 223.960938 257.230469 C 224.300781 257.390625 224.628906 257.558594 224.957031 257.730469 C 225.167969 257.835938 225.390625 257.941406 225.601562 258.058594 C 226.480469 258.503906 227.335938 258.96875 228.179688 259.433594 C 228.488281 259.605469 228.804688 259.785156 229.101562 259.953125 C 229.300781 260.070312 229.492188 260.175781 229.683594 260.28125 L 230.402344 260.703125 L 231.132812 261.148438 L 231.609375 261.4375 C 232.0625 261.699219 232.507812 261.976562 232.949219 262.261719 C 233.4375 262.570312 233.914062 262.875 234.390625 263.195312 " fill-opacity="1" fill-rule="nonzero"/><path fill="#e1ad9e" d="M 204.875 220.707031 L 204.875 267.226562 C 204.875 278.992188 195.261719 288.632812 183.511719 288.632812 L 179.003906 288.632812 C 167.257812 288.632812 157.652344 278.992188 157.652344 267.226562 L 157.652344 220.707031 C 157.652344 208.941406 167.257812 199.324219 179.003906 199.324219 L 183.511719 199.324219 C 195.261719 199.324219 204.875 208.941406 204.875 220.707031 " fill-opacity="1" fill-rule="nonzero"/><path fill="#f4716d" d="M 204.875 220.707031 L 204.875 245.328125 C 197.851562 249.234375 190.40625 251.503906 182.84375 251.503906 C 173.929688 251.503906 165.425781 249.023438 157.652344 244.691406 L 157.652344 220.707031 C 157.652344 208.941406 167.257812 199.324219 179.003906 199.324219 L 183.511719 199.324219 C 195.261719 199.324219 204.875 208.941406 204.875 220.707031 " fill-opacity="1" fill-rule="nonzero"/><path fill="#e1ad9e" d="M 238.839844 202.765625 C 238.839844 202.765625 249.902344 198.996094 256.96875 186.648438 C 264.644531 173.242188 259.824219 164.886719 258.300781 163.074219 C 254.144531 158.128906 247.726562 161.308594 246.667969 163.074219 C 245.609375 164.84375 230.296875 192.695312 238.839844 202.765625 " fill-opacity="1" fill-rule="nonzero"/><path fill="#f4716d" d="M 249.679688 167.46875 C 249.679688 167.46875 256.703125 168.371094 254.238281 178.25 C 251.765625 188.140625 245.28125 192.050781 236.460938 197.101562 C 227.652344 202.152344 240.871094 169.484375 249.679688 167.46875 " fill-opacity="1" fill-rule="nonzero"/><path fill="#e1ad9e" d="M 126.550781 202.765625 C 126.550781 202.765625 115.488281 198.996094 108.425781 186.648438 C 100.738281 173.242188 105.558594 164.886719 107.082031 163.074219 C 111.238281 158.128906 117.65625 161.308594 118.714844 163.074219 C 119.773438 164.84375 135.097656 192.695312 126.550781 202.765625 " fill-opacity="1" fill-rule="nonzero"/><path fill="#f4716d" d="M 115.703125 167.46875 C 115.703125 167.46875 108.691406 168.371094 111.152344 178.25 C 113.617188 188.140625 120.113281 192.050781 128.921875 197.101562 C 137.742188 202.152344 124.519531 169.484375 115.703125 167.46875 " fill-opacity="1" fill-rule="nonzero"/><path fill="#e1ad9e" d="M 249.679688 160.945312 C 249.679688 120.355469 219.761719 87.441406 182.84375 87.441406 C 145.9375 87.441406 115.996094 120.355469 115.996094 160.945312 C 115.996094 201.539062 145.9375 243.972656 182.84375 243.972656 C 217.53125 243.972656 249.679688 201.199219 249.679688 160.945312 " fill-opacity="1" fill-rule="nonzero"/><path fill="#3f2463" d="M 188.863281 131.304688 C 188.863281 131.304688 201.4375 171.8125 248.730469 167.796875 C 248.730469 167.796875 256.988281 155.84375 254.195312 129.84375 C 251.046875 100.542969 225.125 75.886719 182.84375 84.710938 C 182.84375 84.710938 178.984375 105.539062 188.863281 131.304688 " fill-opacity="1" fill-rule="nonzero"/><path fill="#3f2463" d="M 190.976562 87.441406 C 190.976562 87.441406 192.734375 79.773438 186.386719 73.769531 C 180.042969 67.765625 90.703125 82.898438 112.941406 168.761719 C 112.941406 168.761719 135.582031 112.59375 187.445312 108.355469 L 190.976562 87.441406 " fill-opacity="1" fill-rule="nonzero"/></svg>