<svg xmlns="http://www.w3.org/2000/svg" xmlns:xlink="http://www.w3.org/1999/xlink" width="500" zoomAndPan="magnify" viewBox="0 0 375 374.999991" height="500" preserveAspectRatio="xMidYMid meet" version="1.0"><defs><g/><clipPath id="8cd4b6623f"><path d="M 21.230469 43.46875 L 353.480469 43.46875 L 353.480469 331.46875 L 21.230469 331.46875 Z M 21.230469 43.46875 " clip-rule="nonzero"/></clipPath><clipPath id="ef9c914420"><path d="M 4.324219 28.972656 L 370.324219 28.972656 L 370.324219 346.222656 L 4.324219 346.222656 Z M 4.324219 28.972656 " clip-rule="nonzero"/></clipPath></defs><g clip-path="url(#8cd4b6623f)"><path fill="#ffffff" d="M 353.480469 187.496094 L 270.417969 331.457031 L 104.292969 331.457031 L 21.230469 187.496094 L 104.292969 43.535156 L 270.417969 43.535156 Z M 353.480469 187.496094 " fill-opacity="1" fill-rule="nonzero"/></g><g clip-path="url(#ef9c914420)"><path fill="#ffffff" d="M 272.402344 39.960938 L 357.480469 187.597656 L 272.402344 335.230469 L 102.246094 335.230469 L 17.097656 187.597656 L 102.246094 39.960938 L 272.402344 39.960938 M 278.769531 28.972656 L 95.882812 28.972656 L 4.441406 187.597656 L 95.882812 346.222656 L 278.769531 346.222656 L 370.210938 187.597656 Z M 278.769531 28.972656 " fill-opacity="1" fill-rule="nonzero"/></g><g fill="#4fac93" fill-opacity="1"><g transform="translate(166.031076, 288.70507)"><g><path d="M 82.785156 -101.101562 C 79.234375 -94.144531 72.132812 -88.605469 64.46875 -87.46875 C 59.355469 -86.761719 53.960938 -87.894531 50.976562 -92.441406 C 49.984375 -94.003906 48.5625 -93.859375 47.851562 -92.015625 C 41.464844 -77.246094 46.859375 -61.625 64.609375 -61.910156 C 82.359375 -62.335938 95.28125 -74.121094 100.816406 -90.738281 C 108.058594 -112.605469 97.410156 -130.210938 73.695312 -130.210938 C 33.9375 -130.210938 18.886719 -94.996094 7.527344 -62.761719 C 0.425781 -42.882812 -6.957031 -20.875 -20.023438 -3.976562 C -23.003906 -0.140625 -20.875 0.851562 -17.75 -1.136719 C -3.976562 -9.796875 34.363281 0 57.792969 0 C 77.957031 0 90.453125 -13.0625 91.304688 -33.9375 C 91.445312 -36.066406 89.882812 -36.777344 88.179688 -35.214844 C 82.359375 -29.820312 74.121094 -28.542969 61.769531 -29.535156 C 45.863281 -30.671875 22.578125 -35.925781 7.808594 -31.523438 C 32.660156 -44.730469 35.074219 -69.578125 39.332031 -90.167969 C 41.746094 -101.671875 48.988281 -113.171875 59.070312 -118.992188 C 73.980469 -127.230469 93.433594 -121.832031 82.785156 -101.101562 Z M 82.785156 -101.101562 "/></g></g></g><g fill="#4fac93" fill-opacity="1"><g transform="translate(90.476851, 199.442878)"><g><path d="M 82.628906 -100.914062 C 79.085938 -93.96875 72 -88.441406 64.347656 -87.308594 C 59.246094 -86.597656 53.859375 -87.734375 50.882812 -92.269531 C 49.890625 -93.828125 48.472656 -93.6875 47.765625 -91.84375 C 41.386719 -77.101562 46.773438 -61.511719 64.488281 -61.796875 C 82.207031 -62.222656 95.101562 -73.984375 100.632812 -90.566406 C 107.859375 -112.394531 97.230469 -129.96875 73.558594 -129.96875 C 33.875 -129.96875 18.851562 -94.820312 7.511719 -62.644531 C 0.425781 -42.804688 -6.945312 -20.835938 -19.984375 -3.96875 C -22.960938 -0.140625 -20.835938 0.851562 -17.714844 -1.132812 C -3.96875 -9.78125 34.300781 0 57.6875 0 C 77.8125 0 90.285156 -13.039062 91.136719 -33.875 C 91.277344 -36 89.71875 -36.710938 88.015625 -35.148438 C 82.207031 -29.765625 73.984375 -28.488281 61.652344 -29.480469 C 45.78125 -30.613281 22.535156 -35.859375 7.796875 -31.464844 C 32.597656 -44.644531 35.007812 -69.449219 39.261719 -90 C 41.667969 -101.480469 48.898438 -112.960938 58.960938 -118.773438 C 73.84375 -126.992188 93.261719 -121.609375 82.628906 -100.914062 Z M 82.628906 -100.914062 "/></g></g></g></svg>